<?xml version="1.0" encoding="utf-8"?>
<!-- Generator: Adobe Illustrator 16.0.0, SVG Export Plug-In . SVG Version: 6.00 Build 0)  -->
<!DOCTYPE svg PUBLIC "-//W3C//DTD SVG 1.1//EN" "http://www.w3.org/Graphics/SVG/1.1/DTD/svg11.dtd">
<svg version="1.1" id="Capa_1" xmlns="http://www.w3.org/2000/svg" xmlns:xlink="http://www.w3.org/1999/xlink" x="0px" y="0px"
	 width="600px" height="600px" viewBox="0 0 600 600" enable-background="new 0 0 600 600" xml:space="preserve">
<g>
	<g>
		<circle fill="#EB0000" cx="299.994" cy="71.264" r="52.785"/>
	</g>
</g>
<g>
	<g>
		<path fill="#EB0000" d="M385.664,90.639c-8.871,39.188-43.833,68.6-85.663,68.6c-41.831,0-76.792-29.412-85.664-68.6
			c-31.466,7.012-55.096,35.047-55.096,68.6v70.381c0,19.398,15.791,35.189,35.189,35.189c19.399,0,35.19-15.791,35.19-35.189
			V194.43H370.38v35.189c0,19.398,15.791,35.189,35.189,35.189c19.399,0,35.19-15.791,35.19-35.189v-70.381
			C440.761,125.686,417.13,97.651,385.664,90.639z"/>
	</g>
</g>
<g>
	<g>
		<path fill="#1D5709" d="M572.715,448.504c-25.248-14.577-57.529-5.93-72.106,19.318c-14.576,25.246-5.927,57.529,19.321,72.104
			c25.246,14.577,58.703,5.926,73.276-19.319C607.783,495.36,597.961,463.078,572.715,448.504z"/>
	</g>
</g>
<g>
	<g>
		<path fill="#1D5709" d="M540.512,328.325l-60.949-35.188c-16.802-9.7-38.371-3.921-48.07,12.881
			c-9.698,16.801-3.92,38.371,12.881,48.069l30.478,17.596L404.47,493.585l-30.477-17.596c-16.802-9.7-38.371-3.92-48.069,12.881
			c-9.7,16.803-3.92,38.371,12.881,48.07l60.949,35.19c29.061,16.775,65.153,10.329,86.957-13.416
			c-29.501-27.276-37.493-72.26-16.577-108.487c20.915-36.229,63.867-51.797,102.241-39.89
			C582.035,379.586,569.573,345.102,540.512,328.325z"/>
	</g>
</g>
<g>
	<g>
		<path fill="#F9A90E" d="M99.393,467.823c-14.577-25.248-46.857-33.896-72.105-19.318C2.04,463.08-7.785,495.361,6.793,520.609
			c14.575,25.246,48.032,33.896,73.276,19.319C105.319,525.351,113.968,493.069,99.393,467.823z"/>
	</g>
</g>
<g>
	<g>
		<path fill="#F9A90E" d="M274.078,488.87c-9.7-16.801-31.271-22.579-48.07-12.881l-30.476,17.595l-70.382-121.901l30.477-17.596
			c16.802-9.698,22.58-31.271,12.882-48.069c-9.7-16.802-31.271-22.58-48.07-12.882L59.49,328.325
			c-29.062,16.777-41.524,51.261-31.861,82.016c38.373-11.909,81.326,3.659,102.241,39.889
			c20.916,36.229,12.924,81.21-16.577,108.488c21.803,23.743,57.896,30.19,86.957,13.415l60.949-35.191
			C277.998,527.241,283.778,505.671,274.078,488.87z"/>
	</g>
</g>
</svg>
