<?xml version="1.0" encoding="utf-8"?>
<!-- Generator: Adobe Illustrator 16.0.0, SVG Export Plug-In . SVG Version: 6.00 Build 0)  -->
<!DOCTYPE svg PUBLIC "-//W3C//DTD SVG 1.1//EN" "http://www.w3.org/Graphics/SVG/1.1/DTD/svg11.dtd">
<svg version="1.1" xmlns="http://www.w3.org/2000/svg" xmlns:xlink="http://www.w3.org/1999/xlink" x="0px" y="0px" width="512px"
	 height="512px" viewBox="0 0 512 512" enable-background="new 0 0 512 512" xml:space="preserve">
<g id="Hintergrund">
	<g id="Ebene_2">
		<rect x="0" y="0" fill="#4762CC" width="512" height="512"/>
	</g>
</g>
<g id="Icon">
	<g>
		<g>
			<g>
				<circle fill="#FFFFFF" cx="255.997" cy="79.873" r="40.644"/>
			</g>
		</g>
		<g>
			<g>
				<path fill="#FFFFFF" d="M321.962,94.792c-6.831,30.174-33.751,52.822-65.961,52.822s-59.13-22.647-65.961-52.822
					c-24.229,5.399-42.423,26.986-42.423,52.822v54.193c0,14.937,12.159,27.096,27.097,27.096s27.097-12.159,27.097-27.096V174.71
					h108.384v27.097c0,14.937,12.159,27.096,27.098,27.096c14.937,0,27.096-12.159,27.096-27.096v-54.193
					C364.386,121.778,346.191,100.191,321.962,94.792z"/>
			</g>
		</g>
		<g>
			<g>
				<path fill="#FFFFFF" d="M465.99,370.346c-19.44-11.224-44.298-4.564-55.522,14.876c-11.223,19.439-4.563,44.298,14.878,55.521
					c19.439,11.224,45.201,4.562,56.423-14.877C492.993,406.427,485.43,381.569,465.99,370.346z"/>
			</g>
		</g>
		<g>
			<g>
				<path fill="#FFFFFF" d="M441.194,277.809l-46.931-27.096c-12.937-7.469-29.545-3.018-37.014,9.919
					c-7.468,12.936-3.019,29.545,9.919,37.014l23.467,13.548l-54.193,93.865l-23.467-13.549
					c-12.938-7.469-29.545-3.018-37.014,9.919c-7.47,12.938-3.019,29.545,9.919,37.015l46.931,27.096
					c22.377,12.918,50.169,7.954,66.956-10.33c-22.716-21.003-28.869-55.64-12.764-83.535
					c16.104-27.896,49.178-39.884,78.725-30.714C473.168,317.281,463.571,290.728,441.194,277.809z"/>
			</g>
		</g>
		<g>
			<g>
				<path fill="#FFFFFF" d="M101.533,385.223c-11.225-19.44-36.081-26.101-55.522-14.876c-19.439,11.224-27.005,36.08-15.78,55.521
					c11.223,19.44,36.985,26.101,56.423,14.877C106.096,429.52,112.756,404.663,101.533,385.223z"/>
			</g>
		</g>
		<g>
			<g>
				<path fill="#FFFFFF" d="M236.041,401.429c-7.469-12.937-24.078-17.386-37.014-9.919l-23.467,13.549l-54.193-93.865
					l23.466-13.548c12.938-7.469,17.386-24.078,9.919-37.014c-7.469-12.937-24.078-17.387-37.014-9.919l-46.931,27.096
					c-22.377,12.919-31.974,39.472-24.534,63.152c29.547-9.171,62.621,2.818,78.726,30.713
					c16.105,27.896,9.952,62.532-12.764,83.537c16.789,18.282,44.581,23.247,66.957,10.329l46.931-27.097
					C239.059,430.974,243.51,414.366,236.041,401.429z"/>
			</g>
		</g>
	</g>
</g>
</svg>
