<?xml version="1.0" standalone="no"?>
<!DOCTYPE svg PUBLIC "-//W3C//DTD SVG 20010904//EN"
 "http://www.w3.org/TR/2001/REC-SVG-20010904/DTD/svg10.dtd">
<svg version="1.0" xmlns="http://www.w3.org/2000/svg"
 width="700.000000pt" height="700.000000pt" viewBox="0 0 700.000000 700.000000"
 preserveAspectRatio="xMidYMid meet">
<metadata>
Created by potrace 1.11, written by Peter Selinger 2001-2013
</metadata>
<g transform="translate(0.000000,700.000000) scale(0.100000,-0.100000)"
fill="#000000" stroke="none">
<path d="M3450 6783 c-151 -19 -293 -86 -390 -183 -155 -156 -214 -409 -144
-619 127 -383 561 -544 905 -335 269 163 370 511 230 793 -76 153 -198 259
-364 315 -69 23 -178 37 -237 29z"/>
<path d="M2435 5925 c-113 -36 -241 -113 -326 -196 -137 -134 -216 -292 -245
-489 -8 -61 -8 -913 1 -981 26 -199 217 -355 423 -344 163 8 303 109 363 262
21 53 23 77 26 283 2 124 3 235 3 248 l0 22 820 0 820 0 0 -27 c0 -16 1 -120
2 -233 1 -270 19 -332 122 -436 108 -108 253 -146 403 -105 142 39 262 173
289 325 8 44 7 931 -1 991 -38 288 -228 538 -495 651 -97 40 -139 50 -144 32
-46 -155 -73 -216 -151 -333 -158 -238 -423 -404 -705 -443 -90 -12 -275 -5
-355 13 -358 82 -645 342 -756 685 -15 47 -33 86 -41 87 -7 1 -31 -5 -53 -12z"/>
<path d="M1562 3628 c-36 -4 -91 -20 -125 -36 -60 -28 -682 -384 -783 -448
-276 -176 -421 -534 -349 -861 l16 -71 37 10 c134 37 343 44 477 14 488 -106
823 -525 814 -1016 -2 -112 -29 -262 -60 -336 -64 -154 -127 -257 -209 -341
-27 -29 -50 -56 -50 -61 0 -10 74 -80 121 -115 167 -122 423 -177 629 -136
143 28 198 56 850 437 19 11 52 30 74 42 169 92 249 224 242 401 -3 76 -8 98
-35 153 -42 86 -112 156 -197 197 -63 31 -77 33 -164 34 -121 0 -144 -9 -382
-146 l-187 -107 -148 256 c-81 140 -160 276 -174 301 -14 25 -104 181 -199
346 -96 165 -180 311 -188 325 -7 14 -35 63 -62 110 l-48 84 81 48 c44 26 81
48 83 48 1 0 53 30 115 66 146 87 191 129 236 222 33 68 36 84 37 161 1 100
-4 126 -38 195 -78 159 -237 245 -414 224z"/>
<path d="M5355 3632 c-140 -14 -269 -102 -333 -228 -80 -156 -36 -372 98 -487
23 -19 126 -84 230 -144 l189 -108 -28 -50 c-15 -27 -81 -142 -146 -255 -65
-113 -158 -272 -205 -355 -48 -82 -138 -238 -200 -345 -62 -107 -121 -211
-132 -230 -11 -19 -40 -70 -65 -112 l-44 -77 -39 24 c-22 14 -42 25 -44 25 -2
0 -49 27 -104 59 -160 94 -208 119 -264 136 -181 53 -390 -39 -473 -210 -35
-70 -35 -70 -42 -161 -9 -118 32 -225 121 -315 38 -39 114 -86 450 -278 22
-13 122 -70 221 -127 243 -140 350 -176 524 -176 162 0 293 37 443 125 48 28
158 125 158 139 0 6 -19 29 -41 52 -173 172 -278 440 -277 706 1 380 196 706
539 898 70 39 245 98 324 109 104 13 302 6 387 -15 l77 -19 11 46 c20 86 21
96 22 197 0 148 -24 248 -91 382 -57 113 -165 236 -266 301 -69 44 -257 151
-266 151 -5 0 -9 5 -9 10 0 6 -4 10 -10 10 -5 0 -55 27 -111 60 -55 33 -102
60 -104 60 -3 0 -226 129 -240 139 -49 36 -190 70 -260 63z"/>
<path d="M480 1831 c-125 -34 -214 -85 -295 -169 -201 -206 -240 -510 -97
-747 81 -133 237 -244 392 -280 91 -20 257 -14 333 13 170 62 303 177 371 325
40 87 50 141 51 262 0 135 -19 210 -81 314 -82 138 -238 252 -391 287 -68 15
-219 12 -283 -5z"/>
<path d="M6223 1830 c-211 -54 -374 -212 -440 -425 -27 -88 -26 -269 2 -350
68 -200 209 -343 403 -408 56 -18 89 -22 192 -22 112 1 133 4 205 30 246 89
401 293 411 540 14 357 -269 653 -625 653 -42 0 -108 -8 -148 -18z"/>
</g>
</svg>
