<?xml version="1.0" encoding="utf-8"?>
<!-- Generator: Adobe Illustrator 16.0.0, SVG Export Plug-In . SVG Version: 6.00 Build 0)  -->
<!DOCTYPE svg PUBLIC "-//W3C//DTD SVG 1.1//EN" "http://www.w3.org/Graphics/SVG/1.1/DTD/svg11.dtd">
<svg version="1.1" id="top_content-menu-content-sidebar"
	 xmlns="http://www.w3.org/2000/svg" xmlns:xlink="http://www.w3.org/1999/xlink" x="0px" y="0px" width="50px" height="60px"
	 viewBox="0 0 50 60" enable-background="new 0 0 50 60" xml:space="preserve">
<rect x="5" y="54.8" fill="#E6E6E6" width="40" height="5.2"/>
<g id="content_copy_15">
</g>
<g id="Rectangle_3_copy_23_">
	<g>
		<rect x="6.6" y="11.625" fill="#F7B685" width="9.2" height="41.575"/>
	</g>
</g>
<g id="Rectangle_4_copy_2_23_">
	<g>
		<path fill="#FFFFFF" d="M10.2,14.2V15h4v-0.8H10.2z M9.4,14.2H8.2V15h1.2V14.2z M10.2,17.4h4v-0.8h-4V17.4z M8.2,17.4h1.2v-0.8
			H8.2V17.4z M10.2,19.8h4V19h-4V19.8z M8.2,19.8h1.2V19H8.2V19.8z M10.2,22.2h4v-0.8h-4V22.2z M8.2,22.2h1.2v-0.8H8.2V22.2z
			 M10.2,24.6h4v-0.8h-4V24.6z M8.2,24.6h1.2v-0.8H8.2V24.6z"/>
	</g>
</g>
<g id="text_rows_30_">
	<g>
		<path fill="#898989" d="M17.4,38.199H41v-0.8H17.4V38.199z M17.4,40.599H41v-0.8H17.4V40.599z M17.4,45.399H41v-0.801H17.4V45.399
			z M17.4,42.999H41v-0.8H17.4V42.999z M17.4,23.799H41v-0.8H17.4V23.799z M17.4,21.399H41v-0.8H17.4V21.399z M17.4,15.799v0.8H41
			v-0.8H17.4z M17.4,18.999H41v-0.8H17.4V18.999z"/>
	</g>
</g>
<g id="picture_big_36_">
	<g>
		<path fill="#898989" d="M17.4,24.8v10.8h15.2V24.8H17.4z M18.96,34.8l2.72-4l1.16,1.2l-1.96,2.8H18.96z M22.08,34.8l4.279-6
			l4.681,6H22.08z M31.8,34.6l-5.44-7l-2.879,3.84l-1.8-1.84l-3.48,4.92V25.6h13.6V34.6z"/>
	</g>
</g>
<rect x="6.6" y="7.6" fill="#C5D6ED" width="36.8" height="4.025"/>
<rect x="8.2" y="9.2" fill="#898989" width="16.4" height="0.8"/>
<rect x="25.4" y="9.2" fill="#898989" width="16.4" height="0.8"/>
<rect x="17.4" y="13.2" fill="#898989" width="24.4" height="0.8"/>
</svg>
