<?xml version="1.0" encoding="utf-8"?>
<!-- Generator: Adobe Illustrator 16.0.0, SVG Export Plug-In . SVG Version: 6.00 Build 0)  -->
<!DOCTYPE svg PUBLIC "-//W3C//DTD SVG 1.1//EN" "http://www.w3.org/Graphics/SVG/1.1/DTD/svg11.dtd">
<svg version="1.1" xmlns="http://www.w3.org/2000/svg" xmlns:xlink="http://www.w3.org/1999/xlink" x="0px" y="0px" width="50px"
	 height="60px" viewBox="0 0 50 60" enable-background="new 0 0 50 60" xml:space="preserve">
<g id="top_content-menu-content-sidebar">
	<rect x="5" y="54.8" fill="#E6E6E6" width="40" height="5.2"/>
	<rect x="6.6" y="7.6" fill="#C5D6ED" width="36.8" height="4.025"/>
	<rect x="8.2" y="9.2" fill="#898989" width="16.4" height="0.8"/>
	<rect x="25.4" y="9.2" fill="#898989" width="16.4" height="0.8"/>
</g>
<g id="content">
	<path fill="#898989" d="M6.275,42.199h38.25v-0.801H6.275V42.199z M6.275,44.6h38.25v-0.801H6.275V44.6z M6.275,52.398h38.25
		v-0.801H6.275V52.398z M6.275,47h38.25v-0.801H6.275V47z M6.275,38.799h38.25V38H6.275V38.799z M6.275,36.399h38.25v-0.8H6.275
		V36.399z M6.275,32.799V33.6h38.25v-0.801H6.275z M6.275,34h38.25v-0.801H6.275V34z"/>
	<path fill="#898989" d="M13.85,13.2v16.413h23.1V13.2H13.85z M16.221,28.398l4.134-6.079l1.763,1.824l-2.979,4.255H16.221z
		 M20.963,28.398l6.504-9.119l7.113,9.119H20.963z M35.734,28.094l-8.268-10.638l-4.375,5.835l-2.735-2.795l-5.289,7.477V14.417
		h20.668v13.677H35.734z"/>
</g>
</svg>
